<svg version="1.1" viewBox="0.0 0.0 353.28871391076115 356.23359580052494" fill="none" stroke="none" stroke-linecap="square" stroke-miterlimit="10" xmlns:xlink="http://www.w3.org/1999/xlink" xmlns="http://www.w3.org/2000/svg"><clipPath id="p.0"><path d="m0 0l353.28873 0l0 356.23358l-353.28873 0l0 -356.23358z" clip-rule="nonzero"/></clipPath><g clip-path="url(#p.0)"><path fill="#000000" fill-opacity="0.0" d="m0 0l353.28873 0l0 356.23358l-353.28873 0z" fill-rule="evenodd"/><path fill="#a1c3fa" d="m148.63985 205.58913l0 0c-14.924728 -21.560837 -9.509842 -51.15941 12.094498 -66.11023l0 0c10.374771 -7.1796417 23.171738 -9.952148 35.575714 -7.7076263c12.403976 2.2445374 23.39891 9.32225 30.56601 19.676132l0 0c14.924744 21.560852 9.509857 51.15941 -12.094482 66.11023l0 0c-21.60434 14.950836 -51.216995 9.592346 -66.14174 -11.968506z" fill-rule="evenodd"/><path fill="#a61c00" d="m177.5267 194.01402l-2.4154968 1.6716003l-2.6889038 -1.8255157l-4.381302 3.0319824l0.8130188 3.1236877l-2.3512573 1.6271362l-3.3250732 -13.9453125l2.3384094 -1.6182556l12.010605 7.934677zm-7.0916595 -1.5149078l-4.3352356 -3.0233917l1.3415527 5.095108l2.9936829 -2.0717163zm10.572708 -6.8605804l-1.2805939 -1.8500214l4.7796173 -3.3076324l3.0236511 4.368088q-0.2224884 1.1610565 -1.190155 2.5907593q-0.9676666 1.429718 -2.316742 2.363327q-1.721695 1.1914673 -3.504547 1.3611603q-1.791748 0.1568451 -3.3590546 -0.73469543q-1.5762024 -0.9043884 -2.670044 -2.4846191q-1.1916809 -1.7215271 -1.3881531 -3.5427246q-0.20536804 -1.8340454 0.6842499 -3.5137787q0.6800537 -1.268692 2.2604065 -2.3623352q2.0429077 -1.4137573 3.782257 -1.3443298q1.7433014 0.047698975 3.1138916 1.3413849l-1.9124908 1.9315643q-0.7915497 -0.64933777 -1.7541199 -0.66726685q-0.97146606 -0.030776978 -1.9222412 0.62719727q-1.4647217 1.0136261 -1.6852722 2.5343628q-0.20768738 1.5118408 1.0462341 3.3233185q1.3517609 1.9527893 2.8884735 2.3334503q1.5495758 0.3717804 2.9628906 -0.60627747q0.69381714 -0.48014832 1.200882 -1.2300873q0.5199127 -0.7588196 0.74531555 -1.5038452l-0.9604645 -1.3875122l-2.543991 1.7605133zm9.560104 -0.6493683l-7.603592 -10.984451l2.2099304 -1.5293427l7.603592 10.984451l-2.2099304 1.5293427zm4.3907166 -3.038498l-7.5413513 -10.894531l2.2099304 -1.5293274l6.260742 9.04451l5.511978 -3.8144531l1.2806091 1.8500061l-7.7219086 5.343796zm9.306671 -6.4404907l-7.603607 -10.984451l8.145905 -5.637207l1.289505 1.8628693l-5.935974 4.1078644l1.6808014 2.4281464l5.524811 -3.823349l1.2806091 1.8500214l-5.524826 3.8233337l2.0720978 2.9934235l6.141556 -4.250122l1.2805939 1.8500061l-8.351471 5.7794647z" fill-rule="nonzero"/><path fill="#a1c3fa" d="m103.44569 91.587296c-4.5766983 -2.5004807 -9.538269 -4.7345963 -14.619499 -6.3190994c-38.40032 40.746048 -48.612583 101.65916 -24.097832 152.70813c3.4380035 -4.079773 6.8759995 -8.159531 10.964111 -12.122437c-19.116444 -45.71634 -8.535248 -99.516464 27.75322 -134.26659z" fill-rule="evenodd"/><path stroke="#ffffff" stroke-width="1.0" stroke-miterlimit="8.0" stroke-linecap="butt" d="m103.44569 91.587296c-4.5766983 -2.5004807 -9.538269 -4.7345963 -14.619499 -6.3190994c-38.40032 40.746048 -48.612583 101.65916 -24.097832 152.70813c3.4380035 -4.079773 6.8759995 -8.159531 10.964111 -12.122437c-19.116444 -45.71634 -8.535248 -99.516464 27.75322 -134.26659z" fill-rule="evenodd"/><path fill="#0c58d3" d="m135.21198 191.14378c-2.6700134 -11.710114 -1.3854218 -23.98787 3.880249 -35.224625c3.7086945 -7.989929 9.167389 -15.021713 15.527527 -19.965775c-12.8025055 -17.713272 -29.252937 -31.274902 -47.741447 -40.714417c-34.63437 33.1893 -44.689583 84.618576 -26.380478 128.34839c14.872002 -14.631226 33.637856 -25.991806 54.71415 -32.443573z" fill-rule="evenodd"/><path stroke="#ffffff" stroke-width="1.3333333333333333" stroke-miterlimit="8.0" stroke-linecap="butt" d="m135.21198 191.14378c-2.6700134 -11.710114 -1.3854218 -23.98787 3.880249 -35.224625c3.7086945 -7.989929 9.167389 -15.021713 15.527527 -19.965775c-12.8025055 -17.713272 -29.252937 -31.274902 -47.741447 -40.714417c-34.63437 33.1893 -44.689583 84.618576 -26.380478 128.34839c14.872002 -14.631226 33.637856 -25.991806 54.71415 -32.443573z" fill-rule="evenodd"/><path fill="#000000" fill-opacity="0.0" d="m74.462234 194.97188l26.058563 -90.10479l38.85054 11.2604065l-26.058556 90.10479z" fill-rule="evenodd"/><path fill="#ffffff" d="m101.918755 175.93187l-0.6815262 2.3565521l4.0519867 1.1744232l-0.38200378 1.3208771l-10.009903 -2.9012604l0.95934296 -3.3171844q0.48618317 -1.6811218 1.5313568 -2.3705292q1.0301743 -0.69377136 2.5008926 -0.26750183q0.93045807 0.26968384 1.4882126 0.9844513q0.5427475 0.71043396 0.61244965 1.7067108l4.943611 -1.1212311l0.075035095 0.021743774l-0.4080429 1.4109344l-4.6814117 1.0020142zm-1.7620544 2.0433807l0.5860214 -2.0263367q0.28649902 -0.9906616 -0.043785095 -1.7045746q-0.34095764 -0.73327637 -1.1963806 -0.98121643q-0.93045044 -0.26968384 -1.5863113 0.14215088q-0.65151215 0.39682007 -0.9553757 1.4475098l-0.5860214 2.0263367l3.7818527 1.0961304zm4.2718506 -12.858917l-1.2545242 4.33786l3.5417404 1.026535l1.4585419 -5.0433197l1.0805283 0.3131714l-1.840538 6.364197l-10.009911 -2.9012604l1.81884 -6.289139l1.0955353 0.31752014l-1.4368362 4.968277l3.2115707 0.93084717l1.2545242 -4.33786l1.0805283 0.3131714zm4.503456 -4.8297577l-7.4249344 -5.2592316l0.41672516 -1.4409485l8.937706 6.6087036l-0.33859253 1.1707764l-11.082108 0.80618286l0.41672516 -1.4409485l9.074478 -0.4445343zm3.7994843 -6.557495l-0.38199615 1.3208618l-10.009903 -2.9012604l0.38199615 -1.3208618l10.009903 2.9012604zm-2.290718 -9.401688l-1.2545242 4.33786l3.5417404 1.026535l1.4585419 -5.043335l1.0805283 0.31318665l-1.8405457 6.364197l-10.009903 -2.9012604l1.81884 -6.289154l1.0955353 0.3175354l-1.4368362 4.968277l3.2115707 0.9308319l1.2545242 -4.33786l1.0805283 0.31318665zm2.7735214 -4.0785217l1.3770752 0.18765259l-1.1181107 -0.63316345l-6.4054184 -4.003937l0.32122803 -1.110733l7.538391 0.08634949l1.2937317 0.08213806l-1.2898865 -0.6016083l-6.391899 -3.5444946l0.38199615 -1.3208771l9.306679 5.3328705l-0.34726715 1.2007904l-7.888283 -0.05760193l-0.8131256 -0.056732178l0.7219696 0.37193298l6.672821 4.260376l-0.34726715 1.2007904l-10.708794 -0.48466492l0.38200378 -1.3208618l7.3141556 0.41177368z" fill-rule="nonzero"/><path fill="#a1c3fa" d="m87.60242 247.85716c-3.4420395 -4.9734344 -6.499176 -10.213272 -9.171425 -15.719467c-3.7043152 3.6953278 -7.143852 7.773224 -10.583397 11.85112c2.5275955 4.4746857 4.7904205 8.566788 7.438141 12.392532c30.184021 43.61328 81.41472 64.17328 130.6889 57.23062c-2.9124908 -4.2082825 -5.7048492 -9.065552 -8.112335 -14.189178c-41.936646 3.5618896 -84.576996 -14.456055 -110.25989 -51.565628z" fill-rule="evenodd"/><path stroke="#ffffff" stroke-width="1.0" stroke-miterlimit="8.0" stroke-linecap="butt" d="m87.60242 247.85716c-3.4420395 -4.9734344 -6.499176 -10.213272 -9.171425 -15.719467c-3.7043152 3.6953278 -7.143852 7.773224 -10.583397 11.85112c2.5275955 4.4746857 4.7904205 8.566788 7.438141 12.392532c30.184021 43.61328 81.41472 64.17328 130.6889 57.23062c-2.9124908 -4.2082825 -5.7048492 -9.065552 -8.112335 -14.189178c-41.936646 3.5618896 -84.576996 -14.456055 -110.25989 -51.565628z" fill-rule="evenodd"/><path fill="#0d5ddf" d="m164.79301 227.40414c-13.603989 -6.2877197 -23.069565 -17.605453 -27.727066 -30.626358c-20.843086 6.8444977 -39.381584 18.59172 -53.91429 32.98137c2.5579758 5.26886 5.48394 10.283035 8.777908 15.042526c24.578026 35.513107 65.3658 52.76857 105.47156 49.378464c-9.07959 -18.624054 -14.225861 -39.428833 -14.310669 -61.57065c-5.960373 -0.7482147 -12.427521 -2.2286377 -18.29744 -5.205353z" fill-rule="evenodd"/><path stroke="#ffffff" stroke-width="1.3333333333333333" stroke-miterlimit="8.0" stroke-linecap="butt" d="m164.79301 227.40414c-13.603989 -6.2877197 -23.069565 -17.605453 -27.727066 -30.626358c-20.843086 6.8444977 -39.381584 18.59172 -53.91429 32.98137c2.5579758 5.26886 5.48394 10.283035 8.777908 15.042526c24.578026 35.513107 65.3658 52.76857 105.47156 49.378464c-9.07959 -18.624054 -14.225861 -39.428833 -14.310669 -61.57065c-5.960373 -0.7482147 -12.427521 -2.2286377 -18.29744 -5.205353z" fill-rule="evenodd"/><path fill="#000000" fill-opacity="0.0" d="m111.97221 202.71179l75.9538 55.050873l-23.72882 32.78891l-75.95379 -55.050873z" fill-rule="evenodd"/><path fill="#ffffff" d="m133.38092 238.03369l-2.7073975 -1.9623108l-5.441307 7.5189056l-1.1133194 -0.80693054l5.4412994 -7.5189056l-2.7073975 -1.9622955l0.66871643 -0.92404175l6.528122 4.731537l-0.66871643 0.92404175zm3.3982086 7.982086l-3.6562653 -2.6500244l-2.1618652 2.9873047l4.2508698 3.0809937l-0.6595459 0.9113922l-5.364197 -3.8879395l6.110016 -8.442932l5.300949 3.8420868l-0.66871643 0.92404175l-4.187622 -3.0351715l-1.9603271 2.7088318l3.65625 2.6500397l-0.6595459 0.91137695zm4.366699 3.377243q-1.1273041 -1.4538879 -1.3546448 -2.52565q-0.20550537 -1.0752411 0.42655945 -1.9486389q0.7236786 -0.99998474 1.9878998 -1.0678711q1.2733765 -0.08052063 2.5385132 0.83644104q0.8729553 0.6327057 1.3087921 1.469635q0.44500732 0.8242798 0.38136292 1.6851196q-0.05101013 0.87002563 -0.5548248 1.5662231l-1.1259766 -0.8161011q0.5496216 -0.75949097 0.37683105 -1.5601349q-0.16014099 -0.79148865 -1.0457306 -1.4333649q-0.8223419 -0.59602356 -1.5434418 -0.5590515q-0.7211151 0.036987305 -1.1791382 0.66989136q-0.37556458 0.51898193 -0.21107483 1.1978302q0.18630981 0.67536926 1.0256805 1.7275848q0.8393707 1.0522156 1.168335 1.8502655q0.3381195 0.7854004 0.26835632 1.4681396q-0.047943115 0.67926025 -0.5151367 1.3248138q-0.74198914 1.0253143 -1.9878998 1.0678711q-1.2367401 0.029891968 -2.5777893 -0.9420929q-0.87294006 -0.6327057 -1.3938446 -1.5119934q-0.49909973 -0.882782 -0.49172974 -1.7458191q0.016540527 -0.8757019 0.5478363 -1.6098633l1.113327 0.80693054q-0.5496216 0.7594757 -0.31358337 1.6059723q0.248703 0.8556671 1.1975555 1.543396q0.8855896 0.6418762 1.610199 0.62672424q0.7337494 -0.027801514 1.1826019 -0.64805603q0.4488678 -0.62023926 0.24424744 -1.2702942q-0.18281555 -0.65353394 -1.0832825 -1.8079071zm13.100876 3.7640686l-2.7073975 -1.9623108l-5.4413147 7.5189056l-1.1133118 -0.8069458l5.4412994 -7.5188904l-2.7073975 -1.9623108l0.66871643 -0.92404175l6.528122 4.731552l-0.66871643 0.92404175z" fill-rule="nonzero"/><path fill="#a1c3fa" d="m256.98914 278.1769c-16.144547 11.17337 -34.166077 17.99179 -52.117645 20.804047c2.52594 4.4711914 5.316452 9.324707 8.226776 13.529877c18.071396 -3.4605713 35.828323 -10.661285 52.35727 -22.100677c31.135925 -21.548645 50.730286 -53.202255 57.08069 -87.56325c-5.286621 1.3972015 -10.83786 2.4121246 -16.00467 3.1609955c-6.9543457 28.559647 -23.788025 54.34485 -49.54242 72.16901z" fill-rule="evenodd"/><path stroke="#ffffff" stroke-width="1.0" stroke-miterlimit="8.0" stroke-linecap="butt" d="m256.98914 278.1769c-16.144547 11.17337 -34.166077 17.99179 -52.117645 20.804047c2.52594 4.4711914 5.316452 9.324707 8.226776 13.529877c18.071396 -3.4605713 35.828323 -10.661285 52.35727 -22.100677c31.135925 -21.548645 50.730286 -53.202255 57.08069 -87.56325c-5.286621 1.3972015 -10.83786 2.4121246 -16.00467 3.1609955c-6.9543457 28.559647 -23.788025 54.34485 -49.54242 72.16901z" fill-rule="evenodd"/><path fill="#0e65f0" d="m237.8676 199.60394c-0.11366272 0.62158203 -0.59503174 1.4976501 -1.0764008 2.373703c-8.86525 18.622543 -27.645355 29.991196 -47.34807 30.597137c0.12030029 22.17627 5.3016815 43.02153 14.781952 61.434525c17.188904 -2.6665955 34.437973 -9.175232 49.881927 -19.863739c24.636795 -17.05069 40.715897 -41.751648 47.32808 -69.13028c-20.779114 2.9796448 -42.37387 1.6375427 -63.56749 -5.4113464z" fill-rule="evenodd"/><path stroke="#ffffff" stroke-width="1.3333333333333333" stroke-miterlimit="8.0" stroke-linecap="butt" d="m237.8676 199.60394c-0.11366272 0.62158203 -0.59503174 1.4976501 -1.0764008 2.373703c-8.86525 18.622543 -27.645355 29.991196 -47.34807 30.597137c0.12030029 22.17627 5.3016815 43.02153 14.781952 61.434525c17.188904 -2.6665955 34.437973 -9.175232 49.881927 -19.863739c24.636795 -17.05069 40.715897 -41.751648 47.32808 -69.13028c-20.779114 2.9796448 -42.37387 1.6375427 -63.56749 -5.4113464z" fill-rule="evenodd"/><path fill="#000000" fill-opacity="0.0" d="m189.76181 257.37503l74.48691 -57.013885l24.591705 32.16333l-74.48692 57.013885z" fill-rule="evenodd"/><path fill="#ffffff" d="m218.59093 267.1991l-6.3301544 -8.279175l2.3450317 -1.7949524q1.0794525 -0.8262329 2.2684784 -0.9689331q1.1919403 -0.16462708 2.312439 0.37475586q1.132904 0.5299072 2.0184326 1.6623535l0.4080963 0.53375244q0.8921051 1.1667786 1.1068573 2.399475q0.22714233 1.223175 -0.25593567 2.3406372q-0.47065735 1.1079712 -1.5778503 1.9751282l-2.295395 1.756958zm-4.5454865 -8.208801l4.9540253 6.4793396l1.1539154 -0.8832092q1.265564 -0.96868896 1.3624878 -2.2825317q0.10932922 -1.3233032 -1.0010529 -2.7755737l-0.37013245 -0.48410034q-1.0819092 -1.4150391 -2.349823 -1.6841736q-1.2554932 -0.278656 -2.4714355 0.6520386l-1.2779846 0.97821045zm13.932007 -5.0363007l-3.585785 2.7446442l2.2397614 2.9293518l4.16893 -3.1910095l0.6833191 0.8937073l-5.260803 4.0267334l-6.3301544 -8.27916l5.198761 -3.979248l0.69281006 0.9061127l-4.106903 3.143509l2.03096 2.6562958l3.585785 -2.7446442l0.6833191 0.8937073zm6.4918365 -1.2107239l-2.8499298 -8.640839l1.1911316 -0.91171265l3.2654877 10.624939l-0.9677887 0.74076843l-9.394821 -5.9334106l1.1911163 -0.91171265l7.564804 5.031967zm7.527527 -9.520004l-3.585785 2.7446442l2.2397614 2.929367l4.16893 -3.1909943l0.6833191 0.893692l-5.260803 4.0267334l-6.3301544 -8.279175l5.198761 -3.979248l0.69281006 0.9061279l-4.106903 3.143509l2.03096 2.6562805l3.585785 -2.744629l0.6833191 0.893692zm5.2811127 0.6014557l3.9207764 -3.0010529l0.6833191 0.893692l-5.025055 3.8462982l-6.3301544 -8.279175l1.1042633 -0.8452301l5.6468506 7.3854675zm8.875824 -11.51619q0.9300842 1.2164307 1.21344 2.4359436q0.2833557 1.2195282 -0.0909729 2.2734375q-0.38381958 1.0414886 -1.3888245 1.8107452q-0.9801941 0.75027466 -2.097702 0.85791016q-1.1269836 0.0952301 -2.2321625 -0.47557068q-1.0927582 -0.580307 -1.9972687 -1.7375946l-0.45555115 -0.5957947q-0.91108704 -1.1916046 -1.2039337 -2.4235382q-0.28044128 -1.2414246 0.106292725 -2.30484q0.386734 -1.0634003 1.3669281 -1.8136597q0.99261475 -0.7597656 2.1195984 -0.8549957q1.1174927 -0.1076355 2.229248 0.4974823q1.1022491 0.59272766 2.032318 1.8091431l0.3985901 0.5213318zm-1.4875336 0.29249573q-1.129364 -1.4770813 -2.3228302 -1.8032227q-1.1810608 -0.33563232 -2.248108 0.48110962q-1.0298309 0.7882538 -1.0274963 2.0261078q0.0023498535 1.2378387 1.0623627 2.6499634l0.46502686 0.60821533q1.0914154 1.4274292 2.3133392 1.790802q1.2219391 0.3633728 2.2765808 -0.44386292q1.054657 -0.807251 1.0493774 -2.0231934q-0.01473999 -1.2283478 -1.0937347 -2.6652832l-0.47451782 -0.620636zm4.6996613 -1.7476044l2.4770203 3.2396698l-1.0918579 0.83573914l-6.3301544 -8.279175l3.0522614 -2.336258q1.3648376 -1.0446777 2.6655579 -0.938385q1.3007507 0.106292725 2.1738586 1.2482452q0.92059326 1.20401 0.6667175 2.4411926q-0.25094604 1.215271 -1.6654053 2.297943l-1.947998 1.4910278zm-0.6833191 -0.8937073l1.9604187 -1.500534q0.8809204 -0.6742859 1.026825 -1.4352875q0.15829468 -0.77049255 -0.4396057 -1.5524902q-0.5694275 -0.744751 -1.3730774 -0.81829834q-0.80075073 -0.09547424 -1.6291199 0.5189209l-2.0224304 1.5480194l2.4769897 3.2396698z" fill-rule="nonzero"/><path fill="#a1c3fa" d="m251.18979 76.4902c14.507721 8.595955 27.107727 20.206436 36.88571 34.334755c19.027405 27.492935 24.752777 59.67404 19.427155 89.902725c5.1792297 -0.7607422 10.744263 -1.7884979 15.780731 -3.5799255c4.0042725 -32.137924 -2.7781677 -65.84642 -22.86264 -94.866745c-12.420654 -17.94677 -28.94226 -31.92588 -47.22882 -41.85977c-0.32209778 5.305603 -1.0299835 10.878204 -2.0021362 16.068962z" fill-rule="evenodd"/><path stroke="#ffffff" stroke-width="1.0" stroke-miterlimit="8.0" stroke-linecap="butt" d="m251.18979 76.4902c14.507721 8.595955 27.107727 20.206436 36.88571 34.334755c19.027405 27.492935 24.752777 59.67404 19.427155 89.902725c5.1792297 -0.7607422 10.744263 -1.7884979 15.780731 -3.5799255c4.0042725 -32.137924 -2.7781677 -65.84642 -22.86264 -94.866745c-12.420654 -17.94677 -28.94226 -31.92588 -47.22882 -41.85977c-0.32209778 5.305603 -1.0299835 10.878204 -2.0021362 16.068962z" fill-rule="evenodd"/><path fill="#307bf3" d="m248.48846 80.56271c-3.5507507 20.890327 -12.082901 40.891052 -25.365875 58.758286c15.844025 13.431122 22.371368 35.478745 16.698914 55.6689c20.848236 7.25708 42.480347 8.550186 62.79773 4.789612c5.049469 -28.975449 -0.48654175 -59.841324 -18.752563 -86.23412c-9.386719 -13.562973 -21.471558 -24.716446 -35.378204 -32.982674z" fill-rule="evenodd"/><path stroke="#ffffff" stroke-width="1.3333333333333333" stroke-miterlimit="8.0" stroke-linecap="butt" d="m248.48846 80.56271c-3.5507507 20.890327 -12.082901 40.891052 -25.365875 58.758286c15.844025 13.431122 22.371368 35.478745 16.698914 55.6689c20.848236 7.25708 42.480347 8.550186 62.79773 4.789612c5.049469 -28.975449 -0.48654175 -59.841324 -18.752563 -86.23412c-9.386719 -13.562973 -21.471558 -24.716446 -35.378204 -32.982674z" fill-rule="evenodd"/><path fill="#000000" fill-opacity="0.0" d="m272.83133 102.94089l28.151031 89.47922l-38.61328 12.144836l-28.151001 -89.47922z" fill-rule="evenodd"/><path fill="#ffffff" d="m255.45454 132.07463l9.941727 -3.1269226l0.886261 2.8170013q0.40795898 1.2967072 0.13613892 2.4632568q-0.25222778 1.1767731 -1.1416626 2.0461884q-0.8847656 0.8843231 -2.2513733 1.3305359l-0.64089966 0.20158386q-1.4010925 0.44067383 -2.632843 0.2220459q-1.2270813 -0.2037201 -2.1123352 -1.039093q-0.8805847 -0.82048035 -1.3175049 -2.1572113l-0.86750793 -2.7573853zm9.266312 -1.4730835l-7.780487 2.4471588l0.4360962 1.3861389q0.478302 1.5202942 1.6799011 2.059616q1.2062988 0.55422974 2.9502258 0.005722046l0.5812988 -0.18283081q1.6991577 -0.5344391 2.3849792 -1.6346436q0.6904907 -1.0852966 0.23095703 -2.5459595l-0.4829712 -1.535202zm-0.023376465 14.816254l-1.3551636 -4.30748l-3.5176086 1.1063843l1.5755615 5.0079956l-1.0731812 0.33753967l-1.9881897 -6.319626l9.941711 -3.1269226l1.9647522 6.245102l-1.0880737 0.34222412l-1.552124 -4.9334717l-3.1896973 1.0032349l1.3551941 4.30748l-1.0731812 0.33753967zm1.4919128 5.3147583q-0.038024902 -1.8389435 0.41867065 -2.8343353q0.47631836 -0.98516846 1.5047607 -1.3086395q1.1775208 -0.37036133 2.2330933 0.32955933q1.0704651 0.69522095 1.5393982 2.1856995q0.32354736 1.0284271 0.1743164 1.9598541q-0.13430786 0.9267578 -0.69885254 1.5793304q-0.5598755 0.66748047 -1.3796692 0.9253235l-0.41732788 -1.3265228q0.8943176 -0.28128052 1.2331238 -1.0266571q0.34347534 -0.7304535 0.0152282715 -1.7737885q-0.30477905 -0.96881104 -0.9058533 -1.3694305q-0.6010437 -0.4006195 -1.3463135 -0.16621399q-0.6111145 0.1921997 -0.88391113 0.83491516q-0.25323486 0.65293884 -0.20684814 1.9978638q0.04638672 1.3449097 -0.16546631 2.1813965q-0.19696045 0.8317871 -0.66018677 1.3378296q-0.44363403 0.51626587 -1.2037964 0.75535583q-1.2073364 0.37974548 -2.2330933 -0.32954407q-1.0108643 -0.713974 -1.5079346 -2.2938843q-0.32354736 -1.0284271 -0.21734619 -2.0446014q0.12576294 -1.0059662 0.64645386 -1.6938782q0.5355835 -0.69259644 1.4000549 -0.96450806l0.4126587 1.311615q-0.8943176 0.28128052 -1.2096558 1.101181q-0.31066895 0.8347931 0.041015625 1.952652q0.32824707 1.043335 0.9190979 1.4635468q0.6057434 0.41552734 1.3360901 0.18580627q0.7303467 -0.22970581 0.95376587 -0.8732605q0.24301147 -0.63334656 0.20852661 -2.0966644zm-2.2957153 8.16626l-0.41262817 -1.311615l9.941711 -3.1269226l0.4126587 1.311615l-9.941742 3.1269226zm4.359314 9.326599q-0.8748779 -0.28173828 -1.5186462 -1.0784149q-0.6437683 -0.79667664 -1.0188904 -1.9890594q-0.38452148 -1.2221832 -0.11352539 -2.3393402q0.27096558 -1.1171417 1.1502075 -1.9669647q0.8988342 -0.83961487 2.280304 -1.2905121l0.87942505 -0.27659607q2.2357483 -0.7032013 3.801117 -0.048980713q1.5653687 0.65423584 2.1655884 2.5620422q0.4876709 1.5500946 -0.017089844 2.7571564q-0.48986816 1.2023773 -1.8849182 1.8704681l-0.4126587 -1.3116302q1.8651733 -0.99612427 1.2414856 -2.9784546q-0.41262817 -1.311615 -1.5524597 -1.7065887q-1.1351318 -0.38005066 -2.8986206 0.15823364l-0.8197937 0.25784302q-1.6693726 0.52505493 -2.4139404 1.5946198q-0.7399292 1.0844574 -0.3319702 2.3811646q0.23446655 0.74523926 0.57192993 1.2451477q0.33746338 0.49990845 0.8375244 0.73573303l2.2357788 -0.7032013l-0.72213745 -2.2953339l1.058258 -0.33285522l1.1347961 3.6069489l-3.651764 1.1485748zm1.7930603 10.228928l-0.4126587 -1.311615l6.085663 -7.4176636l-7.6612244 2.4096527l-0.41732788 -1.3265228l9.941711 -3.1269226l0.41732788 1.3265228l-6.1154785 7.4270325l7.69104 -2.4190216l0.4126587 1.311615l-9.941711 3.1269226z" fill-rule="nonzero"/><path fill="#a1c3fa" d="m119.20428 78.97472c38.816048 -26.863941 87.351204 -28.186646 125.8639 -7.8544006c0.955307 -5.1899414 1.6457062 -10.76265 1.9517822 -16.069378c-42.64685 -19.735462 -94.78635 -17.05045 -136.29262 11.675343c-5.7647552 3.9896927 -11.648933 8.628136 -16.499565 13.117371c4.9549484 2.231758 9.909889 4.463516 14.864838 6.6952744c3.1939545 -2.7765808 6.652809 -5.170395 10.111664 -7.564209z" fill-rule="evenodd"/><path stroke="#ffffff" stroke-width="1.0" stroke-miterlimit="8.0" stroke-linecap="butt" d="m119.20428 78.97472c38.816048 -26.863941 87.351204 -28.186646 125.8639 -7.8544006c0.955307 -5.1899414 1.6457062 -10.76265 1.9517822 -16.069378c-42.64685 -19.735462 -94.78635 -17.05045 -136.29262 11.675343c-5.7647552 3.9896927 -11.648933 8.628136 -16.499565 13.117371c4.9549484 2.231758 9.909889 4.463516 14.864838 6.6952744c3.1939545 -2.7765808 6.652809 -5.170395 10.111664 -7.564209z" fill-rule="evenodd"/><path fill="#0944a1" d="m211.29803 129.77898c2.3713226 1.066452 4.996048 2.4990387 7.2526703 4.186386c12.6249695 -17.94336 21.128784 -37.90824 23.924332 -58.254684c-36.8609 -19.435371 -83.32994 -18.141594 -120.50849 7.5890503c-3.3129349 2.2928314 -6.6258774 4.585663 -9.685417 7.2446365c18.373108 10.028137 35.068375 23.925072 47.73851 42.232307c15.230988 -9.458069 34.172302 -11.1951065 51.278397 -2.997696z" fill-rule="evenodd"/><path stroke="#ffffff" stroke-width="1.3333333333333333" stroke-miterlimit="8.0" stroke-linecap="butt" d="m211.29803 129.77898c2.3713226 1.066452 4.996048 2.4990387 7.2526703 4.186386c12.6249695 -17.94336 21.128784 -37.90824 23.924332 -58.254684c-36.8609 -19.435371 -83.32994 -18.141594 -120.50849 7.5890503c-3.3129349 2.2928314 -6.6258774 4.585663 -9.685417 7.2446365c18.373108 10.028137 35.068375 23.925072 47.73851 42.232307c15.230988 -9.458069 34.172302 -11.1951065 51.278397 -2.997696z" fill-rule="evenodd"/><path fill="#000000" fill-opacity="0.0" d="m140.65282 74.804276l93.79355 0l0 40.489998l-93.79355 0z" fill-rule="evenodd"/><path fill="#ffffff" d="m171.4889 96.05115l0 4.078125l-1.375 0l0 -10.421875l3.84375 0q1.71875 0 2.6875 0.875q0.96875 0.875 0.96875 2.3125q0 1.515625 -0.953125 2.34375q-0.9375 0.8125 -2.71875 0.8125l-2.453125 0zm0 -1.125l2.46875 0q1.109375 0 1.6875 -0.515625q0.59375 -0.515625 0.59375 -1.5q0 -0.9375 -0.59375 -1.484375q-0.578125 -0.5625 -1.609375 -0.578125l-2.546875 0l0 4.078125zm9.261658 4.078125l4.9375 0l0 1.125l-6.328125 0l0 -10.421875l1.390625 0l0 9.296875zm12.397385 -1.59375l-4.375 0l-0.96875 2.71875l-1.421875 0l3.96875 -10.421875l1.203125 0l4.0 10.421875l-1.421875 0l-0.984375 -2.71875zm-3.953125 -1.125l3.546875 0l-1.78125 -4.875l-1.765625 4.875zm15.764038 3.84375l-1.375 0l-5.25 -8.03125l0 8.03125l-1.390625 0l0 -10.421875l1.390625 0l5.25 8.0625l0 -8.0625l1.375 0l0 10.421875z" fill-rule="nonzero"/></g></svg>