<svg version="1.1" viewBox="0.0 0.0 404.15223097112863 310.3543307086614" fill="none" stroke="none" stroke-linecap="square" stroke-miterlimit="10" xmlns:xlink="http://www.w3.org/1999/xlink" xmlns="http://www.w3.org/2000/svg"><clipPath id="p.0"><path d="m0 0l404.15222 0l0 310.35434l-404.15222 0l0 -310.35434z" clip-rule="nonzero"/></clipPath><g clip-path="url(#p.0)"><path fill="#000000" fill-opacity="0.0" d="m0 0l404.15222 0l0 310.35434l-404.15222 0z" fill-rule="evenodd"/><path fill="#cc4125" d="m62.508984 110.367905l36.382816 -27.249832l13.898064 -44.08875l44.97265 -0.0012397766l36.384476 -27.247244l36.38446 27.247244l44.97264 0.0012397766l13.898071 44.08875l36.382812 27.249832l-13.896545 44.090103l13.896545 44.090088l-36.382812 27.249832l-13.898071 44.08876l-44.97264 0.0012512207l-36.38446 27.247223l-36.384476 -27.247223l-44.97265 -0.0012512207l-13.898064 -44.08876l-36.382816 -27.249832l13.896549 -44.090088z" fill-rule="evenodd"/><path stroke="#a61c00" stroke-width="3.0" stroke-linejoin="round" stroke-linecap="butt" d="m62.508984 110.367905l36.382816 -27.249832l13.898064 -44.08875l44.97265 -0.0012397766l36.384476 -27.247244l36.38446 27.247244l44.97264 0.0012397766l13.898071 44.08875l36.382812 27.249832l-13.896545 44.090103l13.896545 44.090088l-36.382812 27.249832l-13.898071 44.08876l-44.97264 0.0012512207l-36.38446 27.247223l-36.384476 -27.247223l-44.97265 -0.0012512207l-13.898064 -44.08876l-36.382816 -27.249832l13.896549 -44.090088z" fill-rule="evenodd"/><path fill="#fff2cc" d="m82.44602 115.63993l30.872505 -23.00595l11.7931595 -37.222393l38.161385 -0.001045227l30.873917 -23.003773l30.873901 23.003773l38.161392 0.001045227l11.793152 37.222393l30.872498 23.00595l-11.79187 37.223534l11.79187 37.223526l-30.872498 23.00595l-11.793152 37.222397l-38.161392 0.0010375977l-30.873901 23.003784l-30.873917 -23.003784l-38.161385 -0.0010375977l-11.7931595 -37.222397l-30.872505 -23.00595l11.79187 -37.223526z" fill-rule="evenodd"/><path fill="#6aa84f" d="m3.191601 169.04462q73.80118 6.7352448 147.60236 8.419052l-49.200783 7.296509q98.40157 4.490158 196.80316 0l-49.20079 -7.296509q73.80116 -1.6838074 147.60237 -8.419052l-49.200806 30.869843l49.200806 23.012054q-49.200806 4.490158 -98.40158 6.7352295l0 8.980316q-98.40158 4.490158 -196.80316 0l0 -8.980316q-49.20079 -2.2450714 -98.40157 -6.7352295l49.200787 -23.012054z" fill-rule="evenodd"/><path fill="#54863f" d="m150.79396 186.44398q49.20079 1.1225281 98.40158 0l0 -8.980316l49.20079 7.296509q-98.40158 4.490158 -196.80316 0l49.200783 -7.296509z" fill-rule="evenodd"/><path fill="#000000" fill-opacity="0.0" d="m3.191601 169.04462q73.80118 6.7352448 147.60236 8.419052l-49.200783 7.296509q98.40157 4.490158 196.80316 0l-49.20079 -7.296509q73.80116 -1.6838074 147.60237 -8.419052l-49.200806 30.869843l49.200806 23.012054q-49.200806 4.490158 -98.40158 6.7352295l0 8.980316q-98.40158 4.490158 -196.80316 0l0 -8.980316q-49.20079 -2.2450714 -98.40157 -6.7352295l49.200787 -23.012054zm98.40157 60.617126l0 -44.901566m196.80316 0l0 44.901566m-147.60237 -52.198074l0 8.980316m98.40158 0l0 -8.980316" fill-rule="evenodd"/><path stroke="#134f5c" stroke-width="2.0" stroke-linejoin="round" stroke-linecap="butt" d="m3.191601 169.04462q73.80118 6.7352448 147.60236 8.419052l-49.200783 7.296509q98.40157 4.490158 196.80316 0l-49.20079 -7.296509q73.80116 -1.6838074 147.60237 -8.419052l-49.200806 30.869843l49.200806 23.012054q-49.200806 4.490158 -98.40158 6.7352295l0 8.980316q-98.40158 4.490158 -196.80316 0l0 -8.980316q-49.20079 -2.2450714 -98.40157 -6.7352295l49.200787 -23.012054zm98.40157 60.617126l0 -44.901566m196.80316 0l0 44.901566m-147.60237 -52.198074l0 8.980316m98.40158 0l0 -8.980316" fill-rule="evenodd"/><path fill="#fff2cc" d="m131.09631 221.36366l0 -17.1875l11.78125 0l0 2.90625l-8.3125 0l0 4.078125l7.171875 0l0 2.90625l-7.171875 0l0 7.296875l-3.46875 0zm14.660156 0l0 -17.1875l7.296875 0q2.75 0 4.0 0.46875q1.25 0.46875 2.0 1.65625q0.75 1.171875 0.75 2.703125q0 1.921875 -1.140625 3.1875q-1.140625 1.265625 -3.390625 1.59375q1.125 0.65625 1.84375 1.4375q0.734375 0.78125 1.984375 2.78125l2.09375 3.359375l-4.140625 0l-2.515625 -3.734375q-1.328125 -2.015625 -1.828125 -2.53125q-0.484375 -0.515625 -1.046875 -0.703125q-0.546875 -0.203125 -1.734375 -0.203125l-0.703125 0l0 7.171875l-3.46875 0zm3.46875 -9.921875l2.5625 0q2.5 0 3.109375 -0.203125q0.625 -0.21875 0.96875 -0.734375q0.359375 -0.515625 0.359375 -1.28125q0 -0.875 -0.46875 -1.40625q-0.453125 -0.53125 -1.296875 -0.671875q-0.421875 -0.0625 -2.53125 -0.0625l-2.703125 0l0 4.359375zm13.847656 9.921875l0 -17.1875l12.734375 0l0 2.90625l-9.265625 0l0 3.8125l8.625 0l0 2.890625l-8.625 0l0 4.6875l9.59375 0l0 2.890625l-13.0625 0zm16.007812 0l0 -17.1875l12.734375 0l0 2.90625l-9.265625 0l0 3.8125l8.625 0l0 2.890625l-8.625 0l0 4.6875l9.59375 0l0 2.890625l-13.0625 0zm26.535156 0l0 -14.28125l-5.09375 0l0 -2.90625l13.65625 0l0 2.90625l-5.09375 0l0 14.28125l-3.46875 0zm10.816406 0l0 -17.1875l7.296875 0q2.75 0 4.0 0.46875q1.25 0.46875 2.0 1.65625q0.75 1.171875 0.75 2.703125q0 1.921875 -1.140625 3.1875q-1.140625 1.265625 -3.390625 1.59375q1.125 0.65625 1.84375 1.4375q0.734375 0.78125 1.984375 2.78125l2.09375 3.359375l-4.140625 0l-2.515625 -3.734375q-1.328125 -2.015625 -1.828125 -2.53125q-0.484375 -0.515625 -1.046875 -0.703125q-0.546875 -0.203125 -1.734375 -0.203125l-0.703125 0l0 7.171875l-3.46875 0zm3.46875 -9.921875l2.5625 0q2.5 0 3.109375 -0.203125q0.625 -0.21875 0.96875 -0.734375q0.359375 -0.515625 0.359375 -1.28125q0 -0.875 -0.46875 -1.40625q-0.453125 -0.53125 -1.296875 -0.671875q-0.421875 -0.0625 -2.53125 -0.0625l-2.703125 0l0 4.359375zm13.738281 9.921875l0 -17.1875l3.46875 0l0 17.1875l-3.46875 0zm22.261719 0l-3.765625 0l-1.5 -3.90625l-6.875 0l-1.40625 3.90625l-3.6875 0l6.6875 -17.1875l3.671875 0l6.875 17.1875zm-6.375 -6.796875l-2.375 -6.375l-2.3125 6.375l4.6875 0zm8.316406 6.796875l0 -17.046875l3.46875 0l0 14.15625l8.625 0l0 2.890625l-12.09375 0z" fill-rule="nonzero"/><path fill="#a61c00" d="m164.09521 154.80753c1.6794281 0 3.0926056 0.52693176 4.2395325 1.5808258c1.1469116 1.0538788 1.7203827 2.707016 1.7203827 4.959427c0 2.0457764 -0.5643616 3.5680542 -1.6930847 4.566818c-1.1241608 0.99534607 -2.4918213 1.4930115 -4.1029816 1.4930115c-1.5975037 0 -2.983368 -0.5217743 -4.157593 -1.5653229c-1.1742249 -1.0435486 -1.7613525 -2.619217 -1.7613525 -4.7269745c0 -2.1800842 0.5484314 -3.776413 1.6452942 -4.7889557c1.1014099 -1.012558 2.471344 -1.5188293 4.1098022 -1.5188293zm5.6526947 -8.198578l0 8.152084c-0.64172363 -0.67160034 -1.4746094 -1.2157593 -2.4986572 -1.6324921c-1.0240326 -0.42016602 -2.1914368 -0.6302643 -3.5021973 -0.6302643c-1.7886658 0 -3.4066467 0.35646057 -4.853943 1.0693817c-1.4473114 0.71292114 -2.5327911 1.7392578 -3.2564545 3.0789948c-0.7236481 1.3362885 -1.0854797 2.8258514 -1.0854797 4.4686584c0 1.6841431 0.39823914 3.175415 1.1947174 4.473831c0.8010254 1.2949677 1.9274597 2.3040771 3.3793182 3.0273285c1.4564209 0.72325134 3.0516357 1.0848694 4.785675 1.0848694c2.6761627 0 4.7037506 -0.8162384 6.082794 -2.4487152l0 2.076767l3.420288 0l0 -22.720444z" fill-rule="evenodd"/><path fill="#a61c00" d="m193.096 161.06882l0 1.0228882c0 1.2295227 -0.19798279 2.1594238 -0.59394836 2.789688c-0.5188446 0.8162384 -1.3312378 1.4602661 -2.43721 1.9321136c-1.105957 0.4683838 -2.3689423 0.7025757 -3.7889404 0.7025757c-1.4336548 0 -2.5236816 -0.24797058 -3.2700958 -0.74391174c-0.7418518 -0.49594116 -1.112793 -1.1158752 -1.112793 -1.859787c0 -0.48561096 0.17068481 -0.92645264 0.5120239 -1.322525c0.34135437 -0.39950562 0.82606506 -0.7025757 1.4541321 -0.90922546c0.6280823 -0.20663452 1.6999054 -0.3926239 3.2154846 -0.5579376c2.6761475 -0.28929138 4.6832733 -0.6405945 6.021347 -1.0538788zm-4.690094 -8.570541c-1.870575 0 -3.5158691 0.19459534 -4.9358673 0.58377075c-1.4199982 0.3857422 -2.505478 0.9385071 -3.2564392 1.6583099c-0.7509613 0.7163696 -1.2902985 1.6583252 -1.617981 2.8258514l3.6046143 0.3719635c0.39596558 -1.1675415 1.0058289 -1.9803314 1.8296204 -2.4384003c0.82832336 -0.46150208 2.1095123 -0.6922455 3.8435516 -0.6922455c1.8569183 0 3.2564392 0.3151245 4.1985626 0.9453888c0.69633484 0.46495056 1.0445099 1.265686 1.0445099 2.402237c0 0.10331726 -0.0068206787 0.3461151 -0.020477295 0.7284088c-1.4063416 0.3719635 -3.5977936 0.69226074 -6.5743256 0.9608917c-1.460968 0.13432312 -2.5532684 0.2738037 -3.2769318 0.41845703c-0.98306274 0.20663452 -1.8683014 0.5114441 -2.6556702 0.9143982c-0.78282166 0.4029541 -1.4177246 0.9385071 -1.9047089 1.6066437c-0.48243713 0.66470337 -0.7236481 1.4000092 -0.7236481 2.2059174c0 1.3741913 0.64172363 2.50383 1.9251862 3.3889618c1.2834625 0.8816681 3.1199036 1.3225098 5.509323 1.3225098c1.4473114 0 2.8013153 -0.18081665 4.062027 -0.5424347c1.2652588 -0.3616333 2.5805817 -0.9815521 3.9459534 -1.859787c0.10923767 0.77490234 0.355011 1.4516602 0.73731995 2.0302734l3.8503876 0c-0.4642334 -0.6302643 -0.776001 -1.2880859 -0.93530273 -1.9734497c-0.15473938 -0.68881226 -0.23210144 -2.3299103 -0.23210144 -4.923279l0 -3.719574c0 -1.2398682 -0.061447144 -2.0974426 -0.18434143 -2.5727234c-0.21846008 -0.76457214 -0.60076904 -1.3965607 -1.1469116 -1.8959503c-0.54615784 -0.5028229 -1.3995209 -0.91955566 -2.5601044 -1.2501831c-1.1605682 -0.33062744 -2.6693268 -0.49595642 -4.526245 -0.49595642z" fill-rule="evenodd"/><path fill="#a61c00" d="m200.4486 152.87024l8.253754 16.490143c-0.15019226 0.29963684 -0.25942993 0.526947 -0.32769775 0.6819153c-0.5188446 1.105545 -0.8943329 1.7978058 -1.1264496 2.076767c-0.31402588 0.3719635 -0.71681213 0.66127014 -1.2083588 0.86790466c-0.49153137 0.20664978 -1.1469269 0.30996704 -1.966156 0.30996704c-0.60076904 0 -1.3039398 -0.08265686 -2.1095123 -0.24797058l0 0l0.40960693 2.6192017c0.8738556 0.22731018 1.6657715 0.34095764 2.3757782 0.34095764c1.1742249 0 2.184616 -0.21524048 3.0311432 -0.64575195c0.84654236 -0.427063 1.5975037 -1.1003723 2.252884 -2.0199432c0.49154663 -0.6819153 1.1810608 -1.9269409 2.0685577 -3.735077l8.274246 -16.738113l-3.6865387 0l-4.6491394 9.593414c-0.5871124 1.2192078 -1.0923157 2.4693909 -1.5155792 3.7505798c-0.4642334 -1.33284 -0.9898987 -2.6036987 -1.5770264 -3.812561l-4.526245 -9.531433z" fill-rule="evenodd"/><path fill="#a61c00" d="m230.65773 152.49828c-1.1332703 0 -2.1959991 0.11193848 -3.1881714 0.33580017c-0.9876251 0.22042847 -1.7681732 0.4907837 -2.3416443 0.81108093c-0.76460266 0.4132843 -1.3699341 0.93333435 -1.8159485 1.5601501c-0.44148254 0.62338257 -0.6622162 1.3018646 -0.6622162 2.0354462c0 0.8059082 0.26852417 1.5429382 0.8055725 2.2110748c0.5416107 0.66470337 1.3335266 1.1864777 2.3757782 1.5653229c1.0467834 0.375412 2.9219208 0.82141113 5.6253815 1.338028c2.0071106 0.38227844 3.26326 0.6974182 3.7684631 0.9453888c0.7236481 0.36161804 1.0854797 0.85757446 1.0854797 1.4878235c0 0.70259094 -0.4096222 1.315628 -1.2288513 1.8391266c-0.8192291 0.52005005 -2.0753784 0.78009033 -3.7684631 0.78009033c-1.6794128 0 -2.987915 -0.29447937 -3.925476 -0.8834076c-0.9330139 -0.5889282 -1.5019226 -1.4361725 -1.7067261 -2.5417175l-3.645584 0.43395996c0.4096222 1.7461395 1.3540039 3.0634918 2.8331757 3.952057c1.4837189 0.88856506 3.6387482 1.33284 6.465088 1.33284c1.7067413 0 3.235962 -0.2238617 4.5877075 -0.6715851c1.3517303 -0.45117188 2.3848724 -1.0866089 3.099411 -1.9062805c0.7191162 -0.8231354 1.078659 -1.699646 1.078659 -2.629547c0 -0.9505615 -0.29356384 -1.7461395 -0.88067627 -2.386734c-0.5871124 -0.6405945 -1.3972473 -1.1279297 -2.4303894 -1.4619904c-1.0285797 -0.3375244 -2.846817 -0.76976013 -5.454712 -1.2966919c-1.8023071 -0.3719635 -2.8877869 -0.6096039 -3.2564392 -0.71292114c-0.64172363 -0.19630432 -1.1127777 -0.4442749 -1.4131622 -0.74391174c-0.30039978 -0.28930664 -0.45059204 -0.61476135 -0.45059204 -0.97639465c0 -0.5682678 0.36183167 -1.064209 1.085495 -1.4878235c0.7236481 -0.42362976 1.9320068 -0.635437 3.6250916 -0.635437c1.4336548 0 2.5418854 0.23764038 3.324707 0.71292114c0.78738403 0.47528076 1.2629852 1.1365356 1.4268341 1.9837799l3.6046143 -0.3719635c-0.2321167 -1.064209 -0.65538025 -1.9131775 -1.2698059 -2.546875c-0.61442566 -0.637146 -1.5679169 -1.1417084 -2.860489 -1.5136719c-1.2880096 -0.37194824 -2.7853851 -0.5579376 -4.492111 -0.5579376z" fill-rule="evenodd"/><path fill="#e69138" d="m105.80577 118.0807l11.705643 8.392334E-5l3.6171646 -12.198906l3.6171646 12.198906l11.705643 -8.392334E-5l-9.470108 7.539253l3.6173096 12.198845l-9.470009 -7.539383l-9.4700165 7.539383l3.6173172 -12.198845z" fill-rule="evenodd"/><path stroke="#cc4125" stroke-width="1.0" stroke-linejoin="round" stroke-linecap="butt" d="m105.80577 118.0807l11.705643 8.392334E-5l3.6171646 -12.198906l3.6171646 12.198906l11.705643 -8.392334E-5l-9.470108 7.539253l3.6173096 12.198845l-9.470009 -7.539383l-9.4700165 7.539383l3.6173172 -12.198845z" fill-rule="evenodd"/><path fill="#e69138" d="m247.2601 118.0807l11.705627 8.392334E-5l3.6171875 -12.198906l3.617157 12.198906l11.705627 -8.392334E-5l-9.470093 7.539253l3.6173096 12.198845l-9.470001 -7.539383l-9.4700165 7.539383l3.6173248 -12.198845z" fill-rule="evenodd"/><path stroke="#cc4125" stroke-width="1.0" stroke-linejoin="round" stroke-linecap="butt" d="m247.2601 118.0807l11.705627 8.392334E-5l3.6171875 -12.198906l3.617157 12.198906l11.705627 -8.392334E-5l-9.470093 7.539253l3.6173096 12.198845l-9.470001 -7.539383l-9.4700165 7.539383l3.6173248 -12.198845z" fill-rule="evenodd"/><path fill="#e69138" d="m136.45145 77.53739l11.705627 9.1552734E-5l3.6171722 -12.198906l3.6171722 12.198906l11.705627 -9.1552734E-5l-9.470108 7.539253l3.6173248 12.19886l-9.4700165 -7.539398l-9.4700165 7.539398l3.6173248 -12.19886z" fill-rule="evenodd"/><path stroke="#cc4125" stroke-width="1.0" stroke-linejoin="round" stroke-linecap="butt" d="m136.45145 77.53739l11.705627 9.1552734E-5l3.6171722 -12.198906l3.6171722 12.198906l11.705627 -9.1552734E-5l-9.470108 7.539253l3.6173248 12.19886l-9.4700165 -7.539398l-9.4700165 7.539398l3.6173248 -12.19886z" fill-rule="evenodd"/><path fill="#e69138" d="m178.82414 66.90222l11.705643 9.1552734E-5l3.617157 -12.19891l3.6171722 12.19891l11.705643 -9.1552734E-5l-9.470108 7.539253l3.6173096 12.198853l-9.4700165 -7.5393906l-9.470001 7.5393906l3.6173096 -12.198853z" fill-rule="evenodd"/><path stroke="#cc4125" stroke-width="1.0" stroke-linejoin="round" stroke-linecap="butt" d="m178.82414 66.90222l11.705643 9.1552734E-5l3.617157 -12.19891l3.6171722 12.19891l11.705643 -9.1552734E-5l-9.470108 7.539253l3.6173096 12.198853l-9.4700165 -7.5393906l-9.470001 7.5393906l3.6173096 -12.198853z" fill-rule="evenodd"/><path fill="#e69138" d="m216.61417 77.53739l11.705643 9.1552734E-5l3.6171722 -12.198906l3.617157 12.198906l11.705643 -9.1552734E-5l-9.470108 7.539253l3.6173096 12.19886l-9.470001 -7.539398l-9.4700165 7.539398l3.6173096 -12.19886z" fill-rule="evenodd"/><path stroke="#cc4125" stroke-width="1.0" stroke-linejoin="round" stroke-linecap="butt" d="m216.61417 77.53739l11.705643 9.1552734E-5l3.6171722 -12.198906l3.617157 12.198906l11.705643 -9.1552734E-5l-9.470108 7.539253l3.6173096 12.19886l-9.470001 -7.539398l-9.4700165 7.539398l3.6173096 -12.19886z" fill-rule="evenodd"/><path fill="#a61c00" d="m181.24957 110.74898l0 16.313217l-14.243271 0l14.243271 -16.313217zm1.0240326 -7.132408l-20.759811 23.445625l0 4.0721283l19.735779 0l0 8.662552l5.585602 0l0 -8.662552l6.144165 0l0 -4.0721283l-6.144165 0l0 -23.445625z" fill-rule="evenodd"/><path fill="#a61c00" d="m213.80121 103.46849c-4.3236694 0 -7.768112 0.8939514 -10.333359 2.6818542c-2.5652313 1.7824173 -4.044388 4.3765182 -4.437439 7.782303l5.740753 0.46891022c0.02067566 -2.270523 0.8378296 -4.047455 2.4514465 -5.3307953c1.613617 -1.2833405 3.7651215 -1.9250107 6.454483 -1.9250107c2.5445404 0 4.6063843 0.6060257 6.1855316 1.8180695c1.586029 1.2065582 2.3790436 2.690071 2.3790436 4.450554c0 1.678215 -0.86886597 3.4606247 -2.6066132 5.3472443c-1.7377319 1.881134 -5.0787506 4.434105 -10.023041 7.658905c-3.1858673 2.073082 -5.623535 3.899376 -7.3130035 5.478874c-1.6825714 1.5794983 -2.9065704 3.18367 -3.6720123 4.8125305c-0.47581482 0.9871826 -0.6930237 2.0154877 -0.6516571 3.0849457l30.069153 0l0 -4.269577l-22.31137 0c0.6206207 -0.8061981 1.4067383 -1.6069183 2.358368 -2.4021454c0.9516144 -0.8007202 3.1031036 -2.3198853 6.454468 -4.557495c4.0133514 -2.6983109 6.882004 -4.820755 8.605957 -6.3673477c1.7308502 -1.5465851 2.9686432 -3.0191345 3.7133942 -4.4176483c0.744751 -1.3985062 1.1171112 -2.821701 1.1171112 -4.2695694c0 -2.8463821 -1.2722626 -5.2320786 -3.8168182 -7.157089c-2.5445557 -1.925003 -5.999344 -2.8875122 -10.364395 -2.8875122z" fill-rule="evenodd"/></g></svg>