<svg version="1.1" viewBox="0.0 0.0 589.4514435695538 596.0446194225722" fill="none" stroke="none" stroke-linecap="square" stroke-miterlimit="10" xmlns:xlink="http://www.w3.org/1999/xlink" xmlns="http://www.w3.org/2000/svg"><clipPath id="p.0"><path d="m0 0l589.4514 0l0 596.0446l-589.4514 0l0 -596.0446z" clip-rule="nonzero"/></clipPath><g clip-path="url(#p.0)"><path fill="#000000" fill-opacity="0.0" d="m0 0l589.4514 0l0 596.0446l-589.4514 0z" fill-rule="evenodd"/><path fill="#778bdd" d="m5.2755904 295.37796l0 0c0 -156.57925 126.932556 -283.5118 283.5118 -283.5118l0 0c75.191986 0 147.30432 29.869907 200.47311 83.03869c53.168793 53.168777 83.038666 125.28111 83.038666 200.47313l0 0c0 156.57925 -126.932556 283.5118 -283.51178 283.5118l0 0c-156.57927 0 -283.5118 -126.932556 -283.5118 -283.5118z" fill-rule="evenodd"/><path fill="#ffffff" d="m186.6329 156.05112c-6.8898773 0 -12.099823 1.9500275 -15.629822 5.850067c-3.4874725 3.900055 -5.231201 8.680756 -5.231201 14.342117c0 5.6613617 1.7437286 10.37915 5.231201 14.153397c3.5299988 3.774231 8.739944 5.6613617 15.629822 5.6613617c6.8898926 0 12.121094 -1.8871307 15.693619 -5.6613617c3.5725403 -3.7742462 5.3588104 -8.492035 5.3588104 -14.153397c0 -5.6613617 -1.7862701 -10.442062 -5.3588104 -14.342117c-3.572525 -3.9000397 -8.803726 -5.850067 -15.693619 -5.850067zm-17.99025 74.35252l0 204.18639l35.40634 0l0 -204.18639z" fill-rule="evenodd"/><path fill="#ffffff" d="m357.34888 226.6294c-25.518066 0 -46.187714 9.813034 -62.00894 29.439087l-1.1483154 -25.66484l-33.492462 0l0 204.18639l35.40634 0l0 -145.49695c4.848419 -9.813019 11.610718 -17.738922 20.286865 -23.77771c8.676147 -6.038788 18.755798 -9.058197 30.238922 -9.058197c14.162537 0 24.582428 3.522644 31.259644 10.567871c6.7197876 7.0452576 10.143463 17.927643 10.271027 32.647186l0 135.1178l35.40634 0l0 -134.92908c-0.38275146 -48.6877 -22.455902 -73.031555 -66.21942 -73.031555z" fill-rule="evenodd"/></g></svg>