<svg version="1.1" viewBox="0.0 0.0 280.0 80.0" fill="none" stroke="none" stroke-linecap="square" stroke-miterlimit="10" xmlns:xlink="http://www.w3.org/1999/xlink" xmlns="http://www.w3.org/2000/svg"><clipPath id="p.0"><path d="m0 0l280.0 0l0 80.0l-280.0 0l0 -80.0z" clip-rule="nonzero"/></clipPath><g clip-path="url(#p.0)"><path fill="#000000" fill-opacity="0.0" d="m0 0l280.0 0l0 80.0l-280.0 0z" fill-rule="evenodd"/><path fill="#45818e" d="m94.82827 15.666564c-1.4690933 0 -2.7944412 0.2461853 -3.976036 0.73855495c-1.1784363 0.4923687 -2.0835876 1.1772671 -2.715454 2.0546951c-0.6287155 0.8742714 -0.94306946 1.8700562 -0.94306946 2.9873562c0 2.1493816 1.1752777 3.858471 3.5258331 5.127268c0.86250305 0.46396446 2.0330353 0.9358177 3.511612 1.4155617c1.4785767 0.4765892 2.502205 0.9310837 3.0708847 1.3634853c0.5686798 0.429245 0.85302734 1.0462837 0.85302734 1.85112c0 0.738554 -0.28434753 1.3145599 -0.85302734 1.7280273c-0.5686798 0.41030502 -1.3600998 0.61545944 -2.3742523 0.61545944c-2.7296753 0 -4.094513 -1.1409721 -4.094513 -3.4229126l-4.2793274 0c0 1.3350773 0.34278107 2.5091896 1.0283661 3.522335c0.68873596 1.0131454 1.687088 1.8116646 2.9950562 2.395565c1.3079681 0.5807419 2.75811 0.87111664 4.350418 0.87111664c2.293686 0 4.11821 -0.508152 5.473572 -1.5244522c1.3553619 -1.0194588 2.0330353 -2.423973 2.0330353 -4.213545c0 -1.6096687 -0.5544586 -2.954216 -1.6633911 -4.033642c-1.1089325 -1.0794258 -2.876587 -1.9836807 -5.3029633 -2.7127647c-1.3174515 -0.3976841 -2.3158035 -0.82377243 -2.9950638 -1.2782669c-0.6761017 -0.45449448 -1.0141449 -1.0178795 -1.0141449 -1.6901531c0 -0.71961594 0.28907776 -1.2987804 0.8672409 -1.7374954c0.5781555 -0.44186974 1.3885269 -0.66280556 2.4311142 -0.66280556c1.0804977 0 1.9193039 0.26354408 2.5164185 0.79063225c0.59711456 0.5239315 0.89567566 1.2593288 0.89567566 2.206194l4.265114 0c0 -1.2403927 -0.32067108 -2.3482227 -0.9620209 -3.323494c-0.6381836 -0.9752693 -1.5354385 -1.7296047 -2.6917572 -2.2630043c-1.1563263 -0.5365572 -2.4737701 -0.8048353 -3.9523468 -0.8048353z" fill-rule="evenodd"/><path fill="#45818e" d="m113.38153 29.642279l0 2.6417522c-0.24642944 0.45449448 -0.6255493 0.8174553 -1.1373596 1.0888939c-0.51181793 0.2682762 -1.071022 0.40241623 -1.6776123 0.40241623c-0.62555695 0 -1.1184082 -0.16570282 -1.4785767 -0.49710464c-0.36016846 -0.33140182 -0.54024506 -0.752758 -0.54024506 -1.2640648l0.014213562 -0.24144936c0.13269043 -1.4202957 1.2274094 -2.1304436 3.2841415 -2.1304436zm-2.06147 -8.663807c-1.2510986 0 -2.3789902 0.21620178 -3.3836594 0.64860153c-1.0046768 0.4292469 -1.7818756 1.0226135 -2.3315964 1.7801056c-0.5497284 0.75749016 -0.8245926 1.5812626 -0.8245926 2.4713154l4.108734 0c0 -0.5775871 0.19587708 -1.0320816 0.5876312 -1.3634853c0.39492035 -0.33140182 0.9383316 -0.49710274 1.6302261 -0.49710274c0.7866745 0 1.3616791 0.21304321 1.7250061 0.63913345c0.36647797 0.42608833 0.54972076 0.9942074 0.54972076 1.7043552l0 0.8805828l-1.8908691 0c-2.2842026 0.009468079 -4.0313263 0.44976044 -5.241356 1.3208752c-1.206871 0.87111473 -1.8103027 2.1209755 -1.8103027 3.7495823c0 1.3256111 0.49443817 2.423973 1.4833145 3.295086c0.9920349 0.87111664 2.2415543 1.306675 3.7485657 1.306675c1.592308 0 2.8860626 -0.55391693 3.881256 -1.661747c0.08530426 0.5491791 0.22273254 1.0084076 0.41229248 1.3776855l4.1513824 0l0 -0.24145126c-0.39807892 -0.7480202 -0.6018524 -1.8511162 -0.61133575 -3.309288l0 -6.66119c0 -1.7232914 -0.5576248 -3.059948 -1.6728745 -4.009968c-1.1120911 -0.9531765 -2.6159363 -1.4297657 -4.5115433 -1.4297657z" fill-rule="evenodd"/><path fill="#45818e" d="m127.34268 24.316168c1.2226715 0 2.1088715 0.4686985 2.6585999 1.4060936l0 6.462347c-0.5402527 0.937397 -1.4359283 1.4060936 -2.687027 1.4060936c-0.97624207 0 -1.7439651 -0.39452744 -2.3031693 -1.1835823c-0.5592041 -0.7922077 -0.83880615 -1.8842583 -0.83880615 -3.2761478c0 -1.6002007 0.28118134 -2.8027172 0.843544 -3.6075516c0.56552887 -0.80483437 1.3411484 -1.2072525 2.3268585 -1.2072525zm-1.0520554 -3.337696c-1.9050903 0 -3.4199982 0.71961784 -4.5447235 2.1588497c-1.1215668 1.4392338 -1.6823502 3.337696 -1.6823502 5.695389l0 0.17043495c0 2.386097 0.5702591 4.30192 1.7107849 5.747465c1.1436844 1.4423904 2.6396332 2.1635857 4.487854 2.1635857c1.5449142 0 2.791275 -0.5349808 3.73909 -1.6049347l0 0.8237686c0 1.0699577 -0.30329895 1.8953094 -0.90989685 2.4760513c-0.6065979 0.58390045 -1.4548798 0.8758507 -2.5448532 0.8758507c-1.4596176 0 -2.7012405 -0.5728531 -3.7248688 -1.7185593l-1.8197861 2.4997215c0.5497284 0.71014786 1.3600998 1.2893143 2.4311142 1.7374954c1.071022 0.45133972 2.1704712 0.67700577 3.2983627 0.67700577c1.4880524 0 2.7865448 -0.26038742 3.8954773 -0.78116226c1.1089325 -0.52077484 1.9682617 -1.2782669 2.5780182 -2.2724724c0.61291504 -0.9942093 0.91937256 -2.1635857 0.91937256 -3.508133l0 -14.856297l-3.7248688 0l-0.17060852 1.4487019c-0.938324 -1.1551743 -2.25103 -1.7327614 -3.938118 -1.7327614z" fill-rule="evenodd"/><path fill="#45818e" d="m143.89134 24.301966c0.87197876 0 1.5449219 0.24934006 2.0188293 0.7480221c0.4738922 0.49552536 0.72032166 1.1977825 0.7392731 2.1067715l0 0.3266697l-5.7152557 0c0.1421814 -1.0226135 0.46600342 -1.8085117 0.9714966 -2.3576927c0.508667 -0.549181 1.1705475 -0.8237705 1.9856567 -0.8237705zm0.014221191 -3.323494c-1.4027557 0 -2.6522827 0.32982445 -3.7485657 0.98947334c-1.0931396 0.65649223 -1.9382629 1.5938873 -2.5353851 2.8121853c-0.59710693 1.2151432 -0.89567566 2.594408 -0.89567566 4.1377964l0 0.3976841c0 2.3008785 0.70770264 4.1425304 2.1230927 5.52495c1.4185486 1.3824234 3.2557068 2.073635 5.5114746 2.073635c1.279541 0 2.4453278 -0.24303055 3.4973907 -0.7290878c1.052063 -0.48921204 1.8861389 -1.1693764 2.5022125 -2.0404892l-2.0188293 -2.2582722c-0.8909302 1.1457043 -2.1278229 1.7185574 -3.7106476 1.7185574c-1.0236359 0 -1.8703308 -0.3029976 -2.5401154 -0.90898895c-0.666626 -0.60599136 -1.0662842 -1.4108276 -1.1989746 -2.414503l9.795563 0l0 -1.6759491c0 -2.4334412 -0.60502625 -4.3129673 -1.8150482 -5.6385765c-1.2068787 -1.3256092 -2.8623657 -1.9884148 -4.9664917 -1.9884148z" fill-rule="evenodd"/><path fill="#45818e" d="m153.00447 26.119944l0 3.30929l8.004211 0l0 -3.30929z" fill-rule="evenodd"/><path fill="#45818e" d="m172.55293 15.666564c-1.7250061 0 -3.239914 0.40557384 -4.5447235 1.2167215c-1.301651 0.8079891 -2.3031616 1.9694767 -3.0045319 3.484459c-0.7013855 1.5149822 -1.052063 3.2666817 -1.052063 5.2550964l0 1.2640629c0 3.1151829 0.75982666 5.565981 2.2794647 7.3524c1.5228119 1.7832603 3.6111298 2.6748924 6.264984 2.6748924c2.4263763 0 4.380432 -0.63913345 5.8621674 -1.9174004c1.4848938 -1.2782669 2.307907 -3.0299664 2.4690247 -5.2550964l-4.265106 0c-0.0947876 1.2593288 -0.46759033 2.1904106 -1.1184082 2.7932472c-0.64767456 0.59968185 -1.6302338 0.8995209 -2.9476776 0.8995209c-1.45961 0 -2.5290527 -0.5160408 -3.208313 -1.5481205c-0.6761017 -1.0320816 -1.0141602 -2.6654224 -1.0141602 -4.9000225l0 -1.5623245c0.018966675 -2.1399136 0.3807068 -3.7180195 1.0852356 -4.7343216c0.70770264 -1.0194569 1.7723999 -1.5291843 3.194107 -1.5291843c1.3079681 0 2.2810516 0.3014183 2.9192352 0.9042549c0.64134216 0.59967995 1.0141449 1.5670586 1.1184082 2.9021378l4.2651215 0c-0.22747803 -2.3103485 -1.0710144 -4.104656 -2.5306396 -5.382923c-1.4596252 -1.278265 -3.383667 -1.9173994 -5.7721252 -1.9173994z" fill-rule="evenodd"/><path fill="#45818e" d="m189.98305 24.301966c1.0141449 0 1.800827 0.39294815 2.3600311 1.1788445c0.5592041 0.7858982 0.83880615 1.8937283 0.83880615 3.323494c0 1.6759491 -0.27960205 2.8958244 -0.83880615 3.659628c-0.5592041 0.7606468 -1.3364105 1.1409721 -2.331604 1.1409721c-1.0236206 0 -1.8103027 -0.38505936 -2.3600311 -1.1551743c-0.5497284 -0.77327347 -0.82458496 -1.8889942 -0.82458496 -3.3471642c0 -1.6380749 0.27485657 -2.8469048 0.82458496 -3.6264896c0.5497284 -0.78273964 1.3269348 -1.1741104 2.331604 -1.1741104zm0 -3.323494c-1.4596252 0 -2.7423096 0.3266678 -3.8480835 0.98000526c-1.1026154 0.6533356 -1.9477386 1.5765285 -2.5353699 2.769577c-0.5876465 1.1930485 -0.8814697 2.5517979 -0.8814697 4.07625l0 0.18463898c0 2.4429092 0.66030884 4.37451 1.9809113 5.7948055c1.3237762 1.4202995 3.0945892 2.1304474 5.312439 2.1304474c2.217865 0 3.9855194 -0.71172714 5.3029633 -2.1351814c1.3174591 -1.426609 1.976181 -3.318758 1.976181 -5.676449l-0.028442383 -1.0510197c-0.15164185 -2.1777859 -0.88461304 -3.9010792 -2.1988983 -5.169878c-1.3111267 -1.2687969 -3.004547 -1.9031963 -5.0802307 -1.9031963z" fill-rule="evenodd"/><path fill="#45818e" d="m206.26158 24.316168c1.2605743 0 2.1467743 0.53497887 2.6585846 1.6049347l0 6.064665c-0.521286 1.0699577 -1.4169617 1.6049347 -2.687027 1.6049347c-0.9572754 0 -1.687088 -0.38348007 -2.1894226 -1.1504402c-0.5023346 -0.76696014 -0.7535095 -1.8700562 -0.7535095 -3.30929c0 -3.2098694 0.99046326 -4.814804 2.9713745 -4.814804zm2.6585846 -9.501781l0 7.8400345c-0.97624207 -1.1172981 -2.2131195 -1.6759491 -3.7106476 -1.6759491c-1.8671722 0 -3.3394318 0.71014786 -4.4167633 2.1304436c-1.0741882 1.4202976 -1.6112671 3.328228 -1.6112671 5.723795c0 2.5375957 0.54655457 4.5196953 1.6396942 5.9463043c1.0962982 1.4234543 2.549591 2.1351814 4.359894 2.1351814c1.6112671 0 2.9287262 -0.63913345 3.9523468 -1.9174004l0.19903564 1.6333389l3.7106628 0l0 -21.815748z" fill-rule="evenodd"/><path fill="#45818e" d="m222.83867 24.301966c0.87197876 0 1.5449219 0.24934006 2.0188293 0.7480221c0.4738922 0.49552536 0.72032166 1.1977825 0.7392731 2.1067715l0 0.3266697l-5.7152557 0c0.1421814 -1.0226135 0.46600342 -1.8085117 0.97151184 -2.3576927c0.50865173 -0.549181 1.1705322 -0.8237705 1.9856415 -0.8237705zm0.014221191 -3.323494c-1.4027557 0 -2.6522827 0.32982445 -3.7485657 0.98947334c-1.0931396 0.65649223 -1.9382629 1.5938873 -2.5353851 2.8121853c-0.59710693 1.2151432 -0.8956604 2.594408 -0.8956604 4.1377964l0 0.3976841c0 2.3008785 0.7076874 4.1425304 2.1230774 5.52495c1.4185333 1.3824234 3.2557068 2.073635 5.5114746 2.073635c1.279541 0 2.4453278 -0.24303055 3.4973907 -0.7290878c1.052063 -0.48921204 1.8861389 -1.1693764 2.5022125 -2.0404892l-2.0188293 -2.2582722c-0.8909302 1.1457043 -2.1278229 1.7185574 -3.7106476 1.7185574c-1.0236359 0 -1.8703308 -0.3029976 -2.5401154 -0.90898895c-0.666626 -0.60599136 -1.0662842 -1.4108276 -1.1989746 -2.414503l9.795563 0l0 -1.6759491c0 -2.4334412 -0.60502625 -4.3129673 -1.8150482 -5.6385765c-1.2068787 -1.3256092 -2.8623657 -1.9884148 -4.9664917 -1.9884148z" fill-rule="evenodd"/><path fill="#45818e" d="m88.553795 49.6515l0 13.577229l8.605331 0l0 -2.2473297l-5.8501587 0l0 -11.329899z" fill-rule="evenodd"/><path fill="#45818e" d="m103.94604 58.64082l0 1.7344513c-0.15918732 0.29840088 -0.40409088 0.53670883 -0.7347107 0.71492004c-0.3306198 0.17613983 -0.6918564 0.26420975 -1.0837021 0.26420975c-0.40409088 0 -0.72247314 -0.10879135 -0.95513153 -0.32637787c-0.23265839 -0.2175827 -0.34898376 -0.49422455 -0.34898376 -0.82992554l0.009178162 -0.15852356c0.08571625 -0.93250275 0.7928772 -1.3987541 2.1214905 -1.3987541zm-1.331665 -5.688263c-0.8081894 0 -1.5367813 0.1419487 -2.1857758 0.4258423c-0.64899445 0.28182602 -1.1510468 0.671402 -1.5061646 1.1687355c-0.35511017 0.49733734 -0.53266144 1.0381851 -0.53266144 1.6225548l2.654152 0c0 -0.37921906 0.12653351 -0.67761993 0.37960052 -0.89520264c0.25510406 -0.2175827 0.60614014 -0.32637405 1.0530853 -0.32637405c0.5081787 0 0.8796158 0.1398735 1.1143188 0.41962433c0.23674011 0.27975082 0.35511017 0.6527519 0.35511017 1.1190033l0 0.5781517l-1.2214584 0c-1.4755478 0.006214142 -2.6041565 0.2952919 -3.3858032 0.86722565c-0.7796173 0.57193375 -1.1694183 1.3925362 -1.1694183 2.4618034c0 0.87033844 0.31938934 1.5914726 0.9581833 2.1634064c0.640831 0.57193375 1.447998 0.8579025 2.4214935 0.8579025c1.0286026 0 1.8643341 -0.36367798 2.5072098 -1.0910301c0.055107117 0.360569 0.14388275 0.66207886 0.26633453 0.9045296l2.6817017 0l0 -0.15852737c-0.25714874 -0.49111557 -0.38878632 -1.2153587 -0.3949051 -2.1727295l0 -4.373432c0 -1.1314354 -0.36021423 -2.0090256 -1.0806427 -2.632763c-0.7183838 -0.62581253 -1.6898422 -0.9387207 -2.91436 -0.9387207z" fill-rule="evenodd"/><path fill="#45818e" d="m113.0473 55.143936c0.63062286 0 1.1051254 0.23519897 1.4235077 0.7055931c0.31837463 0.46832275 0.47756195 1.2122536 0.47756195 2.2317886c0 0.8392525 -0.06428528 1.4640274 -0.19286346 1.8743286c-0.26939392 0.8579025 -0.8326721 1.2868538 -1.6898422 1.2868538c-0.8510437 0 -1.4388123 -0.35435104 -1.7633133 -1.0630531l0 -3.9817848c0.31837463 -0.70248413 0.9000244 -1.0537262 1.7449493 -1.0537262zm-4.3991013 -6.2384377l0 14.323231l2.3878174 0l0.119392395 -1.0723801c0.6428757 0.8392525 1.5031052 1.2588806 2.5806808 1.2588806c1.218399 0 2.1674042 -0.4517479 2.8470154 -1.355236c0.6796112 -0.90556335 1.0194168 -2.1665154 1.0194168 -3.7828522l0 -0.14920044c0 -1.641201 -0.34490967 -2.9135475 -1.0347214 -3.8170395c-0.68777466 -0.90556335 -1.6378021 -1.358345 -2.8500748 -1.358345c-0.99798584 0 -1.8031082 0.36367798 -2.4153748 1.0910263l0 -5.1380844z" fill-rule="evenodd"/><path fill="#45818e" d="m123.51697 55.134613c0.6551132 0 1.1632919 0.2579918 1.5245285 0.7739754c0.36123657 0.5159836 0.5418472 1.2433357 0.5418472 2.1820526c0 1.1003532 -0.18061066 1.901268 -0.5418472 2.402748c-0.36123657 0.4994049 -0.8632889 0.7491112 -1.5061646 0.7491112c-0.6612396 0 -1.1694183 -0.25281143 -1.5245285 -0.7584343c-0.35511017 -0.50769806 -0.53266907 -1.2402306 -0.53266907 -2.1975975c0 -1.0754852 0.1775589 -1.8691483 0.53266907 -2.380989c0.35511017 -0.5139122 0.8571625 -0.7708664 1.5061646 -0.7708664zm0 -2.1820564c-0.94288635 0 -1.7714767 0.21447754 -2.4857864 0.6434288c-0.7122574 0.42894745 -1.258194 1.0350761 -1.6377945 1.8183784c-0.37960052 0.7832985 -0.5694046 1.6753922 -0.5694046 2.6762772l0 0.121227264c0 1.6039047 0.4265442 2.8721046 1.2796249 3.8046074c0.8551254 0.93250275 1.9990311 1.3987541 3.4317245 1.3987541c1.4326935 0 2.574562 -0.46728897 3.4256058 -1.4018631c0.8510361 -0.9366455 1.2765656 -2.1789436 1.2765656 -3.7268982l-0.018371582 -0.69005203c-0.097961426 -1.4298363 -0.57144165 -2.5612717 -1.4204483 -3.3943062c-0.846962 -0.8330345 -1.9408646 -1.2495537 -3.2817154 -1.2495537z" fill-rule="evenodd"/><path fill="#45818e" d="m134.66624 52.952557c-0.94288635 0 -1.6806641 0.4631424 -2.2133331 1.3894272l-0.07347107 -1.2029266l-2.5072021 0l0 10.089672l2.6541443 0l0 -6.6021156c0.31225586 -0.6900482 0.9704437 -1.0350761 1.9745483 -1.0350761c0.2755127 0 0.5938873 0.024868011 0.9551239 0.07460022l0.036743164 -2.5923538c-0.25715637 -0.080818176 -0.53266907 -0.121227264 -0.82655334 -0.121227264z" fill-rule="evenodd"/><path fill="#45818e" d="m141.83888 58.64082l0 1.7344513c-0.15919495 0.29840088 -0.4040985 0.53670883 -0.7347107 0.71492004c-0.33062744 0.17613983 -0.691864 0.26420975 -1.0837097 0.26420975c-0.40408325 0 -0.72247314 -0.10879135 -0.9551239 -0.32637787c-0.23266602 -0.2175827 -0.34898376 -0.49422455 -0.34898376 -0.82992554l0.009170532 -0.15852356c0.08572388 -0.93250275 0.7928772 -1.3987541 2.1214905 -1.3987541zm-1.331665 -5.688263c-0.808197 0 -1.536789 0.1419487 -2.1857758 0.4258423c-0.6490021 0.28182602 -1.1510468 0.671402 -1.5061646 1.1687355c-0.3551178 0.49733734 -0.53266907 1.0381851 -0.53266907 1.6225548l2.6541595 0c0 -0.37921906 0.12652588 -0.67761993 0.3795929 -0.89520264c0.2551117 -0.2175827 0.60614014 -0.32637405 1.0530853 -0.32637405c0.5081787 0 0.8796234 0.1398735 1.1143188 0.41962433c0.23674011 0.27975082 0.3551178 0.6527519 0.3551178 1.1190033l0 0.5781517l-1.2214661 0c-1.4755402 0.006214142 -2.6041412 0.2952919 -3.3858032 0.86722565c-0.7796173 0.57193375 -1.1694183 1.3925362 -1.1694183 2.4618034c0 0.87033844 0.31939697 1.5914726 0.9581909 2.1634064c0.6408386 0.57193375 1.447998 0.8579025 2.4214935 0.8579025c1.028595 0 1.8643341 -0.36367798 2.5072021 -1.0910301c0.055114746 0.360569 0.14389038 0.66207886 0.26634216 0.9045296l2.6817017 0l0 -0.15852737c-0.25715637 -0.49111557 -0.38879395 -1.2153587 -0.39491272 -2.1727295l0 -4.373432c0 -1.1314354 -0.36021423 -2.0090256 -1.0806427 -2.632763c-0.7183838 -0.62581253 -1.6898346 -0.9387207 -2.9143524 -0.9387207z" fill-rule="evenodd"/><path fill="#45818e" d="m147.06453 50.658604l0 2.4804535l-1.4510651 0l0 1.9769058l1.4510651 0l0 5.4364853c0.036727905 1.9085197 0.98573303 2.8627815 2.8470154 2.8627815c0.5510254 0 1.0867615 -0.080818176 1.6071777 -0.24245071l0 -2.042179c-0.22653198 0.04351425 -0.4867401 0.065273285 -0.7806244 0.065273285c-0.39797974 0 -0.66737366 -0.08081436 -0.80818176 -0.24245071c-0.14082336 -0.16163254 -0.21124268 -0.42895126 -0.21124268 -0.80195236l0 -5.035507l1.6990356 0l0 -1.9769058l-1.6990356 0l0 -2.4804535z" fill-rule="evenodd"/><path fill="#45818e" d="m156.9005 55.134613c0.65512085 0 1.1632996 0.2579918 1.5245361 0.7739754c0.36123657 0.5159836 0.54185486 1.2433357 0.54185486 2.1820526c0 1.1003532 -0.18061829 1.901268 -0.54185486 2.402748c-0.36123657 0.4994049 -0.86328125 0.7491112 -1.5061646 0.7491112c-0.6612396 0 -1.1694183 -0.25281143 -1.5245209 -0.7584343c-0.3551178 -0.50769806 -0.53266907 -1.2402306 -0.53266907 -2.1975975c0 -1.0754852 0.17755127 -1.8691483 0.53266907 -2.380989c0.35510254 -0.5139122 0.8571625 -0.7708664 1.5061493 -0.7708664zm0 -2.1820564c-0.9428711 0 -1.7714691 0.21447754 -2.4857788 0.6434288c-0.712265 0.42894745 -1.258194 1.0350761 -1.6377869 1.8183784c-0.37960815 0.7832985 -0.56941223 1.6753922 -0.56941223 2.6762772l0 0.121227264c0 1.6039047 0.4265442 2.8721046 1.2796326 3.8046074c0.8551178 0.93250275 1.9990234 1.3987541 3.431717 1.3987541c1.4326935 0 2.5745544 -0.46728897 3.4255981 -1.4018631c0.8510437 -0.9366455 1.2765656 -2.1789436 1.2765656 -3.7268982l-0.018371582 -0.69005203c-0.097961426 -1.4298363 -0.57144165 -2.5612717 -1.4204407 -3.3943062c-0.84695435 -0.8330345 -1.9408722 -1.2495537 -3.281723 -1.2495537z" fill-rule="evenodd"/><path fill="#45818e" d="m168.04977 52.952557c-0.9428711 0 -1.6806488 0.4631424 -2.2133179 1.3894272l-0.07347107 -1.2029266l-2.5072174 0l0 10.089672l2.6541595 0l0 -6.6021156c0.31225586 -0.6900482 0.97042847 -1.0350761 1.9745331 -1.0350761c0.27552795 0 0.5939026 0.024868011 0.95513916 0.07460022l0.036727905 -2.5923538c-0.2571411 -0.080818176 -0.53266907 -0.121227264 -0.82655334 -0.121227264z" fill-rule="evenodd"/><path fill="#45818e" d="m169.28961 53.139057l3.4806976 10.117645l-0.31225586 0.82992935c-0.1408081 0.3605652 -0.33572388 0.6185608 -0.58470154 0.77397156c-0.24694824 0.1554184 -0.6214447 0.23313141 -1.1235046 0.23313141l-0.40408325 -0.0093307495l0 2.042183c0.39796448 0.118118286 0.7898102 0.17717743 1.1755371 0.17717743c1.3653412 0 2.3449554 -0.6589737 2.938858 -1.9769058l0.22041321 -0.53152466l3.994995 -11.656277l-2.8470154 0l-1.8367767 6.275738l-1.8459778 -6.275738z" fill-rule="evenodd"/><path fill="#000000" fill-opacity="0.0" d="m45.94401 19.337484l4.7824593 -4.8664055l25.912582 26.367414l-25.564026 26.014336l-25.73987 -26.190075l15.653685 -15.926853" fill-rule="evenodd"/><path stroke="#b7b7b7" stroke-width="4.0" stroke-linejoin="round" stroke-linecap="butt" d="m45.94401 19.337484l4.7824593 -4.8664055l25.912582 26.367414l-25.564026 26.014336l-25.73987 -26.190075l15.653685 -15.926853" fill-rule="evenodd"/><path fill="#000000" fill-opacity="0.0" d="m40.54828 61.98482l-4.6945343 4.423855l-25.7383 -26.012737l25.912579 -26.012737l25.215466 26.367416l-14.608013 14.864422" fill-rule="evenodd"/><path stroke="#b7b7b7" stroke-width="4.0" stroke-linejoin="round" stroke-linecap="butt" d="m40.54828 61.98482l-4.6945343 4.423855l-25.7383 -26.012737l25.912579 -26.012737l25.215466 26.367416l-14.608013 14.864422" fill-rule="evenodd"/></g></svg>