<svg version="1.1" viewBox="0.0 0.0 111.91338582677166 104.66666666666667" fill="none" stroke="none" stroke-linecap="square" stroke-miterlimit="10" xmlns:xlink="http://www.w3.org/1999/xlink" xmlns="http://www.w3.org/2000/svg"><clipPath id="p.0"><path d="m0 0l111.91338 0l0 104.666664l-111.91338 0l0 -104.666664z" clip-rule="nonzero"/></clipPath><g clip-path="url(#p.0)"><path fill="#000000" fill-opacity="0.0" d="m0 0l111.91338 0l0 104.666664l-111.91338 0z" fill-rule="evenodd"/><path fill="#000000" fill-opacity="0.0" d="m62.8084 20.501312l32.467976 32.25246l-32.467976 32.25246" fill-rule="evenodd"/><path stroke="#434343" stroke-width="12.0" stroke-miterlimit="8.0" stroke-linecap="butt" d="m62.8084 20.501312l32.467976 32.25246l-32.467976 32.25246" fill-rule="evenodd"/><path fill="#434343" d="m7.4199476 52.338303l37.02362 -37.05512l37.023624 37.05512l-37.023624 37.055115z" fill-rule="evenodd"/><path stroke="#efefef" stroke-width="8.0" stroke-miterlimit="8.0" stroke-linecap="butt" d="m7.4199476 52.338303l37.02362 -37.05512l37.023624 37.05512l-37.023624 37.055115z" fill-rule="evenodd"/><path fill="#000000" fill-opacity="0.0" d="m30.837765 52.71134l37.44882 -37.055115l37.448822 37.055115l-37.448822 37.055122z" fill-rule="evenodd"/><path stroke="#efefef" stroke-width="8.0" stroke-miterlimit="8.0" stroke-linecap="butt" d="m30.837765 52.71134l37.44882 -37.055115l37.448822 37.055115l-37.448822 37.055122z" fill-rule="evenodd"/></g></svg>