<svg version="1.1" viewBox="0.0 0.0 200.0 200.0" fill="none" stroke="none" stroke-linecap="square" stroke-miterlimit="10" xmlns:xlink="http://www.w3.org/1999/xlink" xmlns="http://www.w3.org/2000/svg"><clipPath id="p.0"><path d="m0 0l200.0 0l0 200.0l-200.0 0l0 -200.0z" clip-rule="nonzero"/></clipPath><g clip-path="url(#p.0)"><path fill="#000000" fill-opacity="0.0" d="m0 0l200.0 0l0 200.0l-200.0 0z" fill-rule="evenodd"/><path fill="#efefef" d="m0 0.72440946l200.0 0l0 198.55118l-200.0 0z" fill-rule="evenodd"/><path stroke="#000000" stroke-width="1.0" stroke-linejoin="round" stroke-linecap="butt" d="m0 0.72440946l200.0 0l0 198.55118l-200.0 0z" fill-rule="evenodd"/><path fill="#000000" fill-opacity="0.0" d="m106.17763 50.518375l11.508446 -11.849018l62.35566 64.201l-61.5169 63.3413l-61.94006 -63.76921l37.668804 -38.779667" fill-rule="evenodd"/><path stroke="#434343" stroke-width="8.0" stroke-linejoin="round" stroke-linecap="butt" d="m106.17763 50.518375l11.508446 -11.849018l62.35566 64.201l-61.5169 63.3413l-61.94006 -63.76921l37.668804 -38.779667" fill-rule="evenodd"/><path fill="#000000" fill-opacity="0.0" d="m93.19241 155.00418l-11.29686 10.771484l-61.936283 -63.33741l62.355663 -63.33741l60.67814 64.201l-35.15252 36.192802" fill-rule="evenodd"/><path stroke="#434343" stroke-width="8.0" stroke-linejoin="round" stroke-linecap="butt" d="m93.19241 155.00418l-11.29686 10.771484l-61.936283 -63.33741l62.355663 -63.33741l60.67814 64.201l-35.15252 36.192802" fill-rule="evenodd"/></g></svg>