<svg version="1.1" viewBox="0.0 0.0 215.04724409448818 215.0262467191601" fill="none" stroke="none" stroke-linecap="square" stroke-miterlimit="10" xmlns:xlink="http://www.w3.org/1999/xlink" xmlns="http://www.w3.org/2000/svg"><clipPath id="p.0"><path d="m0 0l215.04724 0l0 215.02625l-215.04724 0l0 -215.02625z" clip-rule="nonzero"/></clipPath><g clip-path="url(#p.0)"><path fill="#000000" fill-opacity="0.0" d="m0 0l215.04724 0l0 215.02625l-215.04724 0z" fill-rule="evenodd"/><g filter="url(#shadowFilter-p.1)"><use xlink:href="#p.1" transform="matrix(1.0 0.0 0.0 1.0 0.0 2.0)"/></g><defs><filter id="shadowFilter-p.1" filterUnits="userSpaceOnUse"><feGaussianBlur in="SourceAlpha" stdDeviation="2.0" result="blur"/><feComponentTransfer in="blur" color-interpolation-filters="sRGB"><feFuncR type="linear" slope="0" intercept="0.35686275"/><feFuncG type="linear" slope="0" intercept="0.05882353"/><feFuncB type="linear" slope="0" intercept="0.0"/><feFuncA type="linear" slope="0.5" intercept="0"/></feComponentTransfer></filter></defs><g id="p.1"><path fill="#b50404" d="m4.233596 108.45145l0 0c0 -56.028637 45.42018 -101.44882 101.448814 -101.44882l0 0c26.905907 0 52.7098 10.688328 71.735146 29.713673c19.025345 19.025341 29.713684 44.82925 29.713684 71.73515l0 0c0 56.028625 -45.420197 101.44882 -101.44883 101.44882l0 0c-56.028633 0 -101.448814 -45.420197 -101.448814 -101.44882z" fill-rule="evenodd"/></g><path fill="#ffffff" d="m51.97111 120.07046l0 0c0 -8.157158 6.612686 -14.769844 14.769848 -14.769844l77.89338 0c3.9172058 0 7.6739807 1.5561066 10.443863 4.325989c2.7698822 2.7698822 4.325989 6.5266495 4.325989 10.443855l0 33.64141c0 8.157166 -6.612686 14.769852 -14.769852 14.769852l-77.89338 0c-8.157162 0 -14.769848 -6.612686 -14.769848 -14.769852z" fill-rule="evenodd"/><path fill="#b50404" d="m60.422745 115.488174l0 7.44928l8.75666 0l0 37.18509l5.9704514 0l0 -37.18509l8.876068 0l0 -7.44928z" fill-rule="evenodd"/><path fill="#b50404" d="m85.61804 126.95332l0 21.734741c0.026535034 3.944336 0.6456909 6.9383545 1.8574753 8.98204c1.2162018 2.0437012 2.978592 3.0655518 5.287163 3.0655518c2.5075912 0 4.4712067 -1.3283997 5.8908463 -3.9852142l0.1592102 3.3721008l5.413208 0l0 -33.16922l-5.7714386 0l0 23.482101c-0.72972107 2.0845642 -2.0697556 3.1268463 -4.0201035 3.1268463c-2.0432205 0 -3.064827 -1.7269135 -3.064827 -5.180771l0 -21.428177z" fill-rule="evenodd"/><path fill="#b50404" d="m118.09729 133.54425c1.3665695 0 2.3948135 0.7732086 3.084732 2.3195953c0.6899185 1.5395966 1.034874 3.9852142 1.034874 7.3368835c0 2.7589874 -0.13930511 4.812912 -0.4179306 6.161743c-0.5837784 2.8203125 -1.8044052 4.2304688 -3.6618729 4.2304688c-1.8442078 0 -3.1179047 -1.164917 -3.8210907 -3.4947357l0 -13.08989c0.6899185 -2.309372 1.9503479 -3.4640656 3.7812881 -3.4640656zm-9.532822 -20.508514l0 47.086807l5.1743927 0l0.2587204 -3.5253754c1.3931046 2.7590027 3.2572098 4.138489 5.5923157 4.138489c2.6402664 0 4.6967545 -1.4850922 6.169464 -4.455261c1.4727173 -2.9769897 2.2090683 -7.122284 2.2090683 -12.435898l0 -0.49049377c0 -5.3953705 -0.74741364 -9.578125 -2.2422333 -12.548309c-1.4904022 -2.976982 -3.5491028 -4.465477 -6.1761017 -4.465477c-2.1626282 0 -3.9073257 1.1955643 -5.2340927 3.5866928l0 -16.891174z" fill-rule="evenodd"/><path fill="#b50404" d="m140.76509 133.5136c1.2206268 0 2.1626282 0.5381775 2.8260193 1.6145172c0.66337585 1.0695496 1.0083466 2.5852814 1.0348816 4.547241l0 0.70506287l-8.000412 0c0.19902039 -2.2071838 0.6523285 -3.9034576 1.3599396 -5.088806c0.71203613 -1.1853485 1.6385498 -1.7780151 2.7795715 -1.7780151zm0.019897461 -7.173378c-1.9636078 0 -3.7127228 0.71188354 -5.24736 2.1356583c-1.5301971 1.4169617 -2.7132263 3.4402313 -3.5490875 6.0697937c-0.83587646 2.6227417 -1.2537994 5.5997314 -1.2537994 8.930954l0 0.85835266c0 4.9661865 0.99064636 8.941177 2.9719543 11.924988c1.985733 2.9837952 4.5574493 4.4756927 7.715149 4.4756927c1.7911377 0 3.42305 -0.5245514 4.895767 -1.5736389c1.4727173 -1.0559235 2.6402588 -2.5239716 3.5026703 -4.404175l-2.8260193 -4.874222c-1.2471619 2.4728699 -2.978592 3.70932 -5.19429 3.70932c-1.4329071 0 -2.6181488 -0.6539917 -3.5557404 -1.9619598c-0.93315125 -1.3079681 -1.4925995 -3.045105 -1.67836 -5.211426l13.712143 0l0 -3.6173553c0 -5.252304 -0.8469238 -9.309036 -2.5407562 -12.170212c-1.6894226 -2.8611832 -4.006836 -4.291771 -6.9522705 -4.291771z" fill-rule="evenodd"/><path fill="#ffffff" d="m107.30298 70.00577c1.4744492 0 2.618187 0.8412781 3.4312057 2.5238419c0.8130188 1.6825638 1.2195282 4.054367 1.2195282 7.1154175c0 3.5881119 -0.4065094 6.1997986 -1.2195282 7.83506c-0.8130188 1.6285019 -1.9429703 2.4427567 -3.3898697 2.4427567c-1.4882355 0 -2.6319733 -0.8243942 -3.4312057 -2.4731674c-0.7992401 -1.6555328 -1.1988602 -4.0442276 -1.1988602 -7.166092c0 -3.5070267 0.39962006 -6.0950623 1.1988602 -7.7641068c0.7992325 -1.6758041 1.9291916 -2.51371 3.3898697 -2.51371zm-36.7098 -17.879757l9.880226 28.218388l0 16.05529l6.304329 0l0 -16.05529l9.880226 -28.218388l-6.7797394 0l-6.262985 19.947483l-6.221649 -19.947483zm36.7098 10.764343c-2.122116 0 -3.9870071 0.69937897 -5.5946655 2.098133c-1.6030655 1.3987579 -2.8317795 3.3752594 -3.6861343 5.929512c-0.8543625 2.5542526 -1.2815399 5.463257 -1.2815399 8.727028l0 0.3952942c0 5.230133 0.9600067 9.365585 2.8800125 12.406364c1.9245987 3.0407715 4.499153 4.561165 7.7236633 4.561165c3.2245102 0 5.7944717 -1.5237732 7.7098846 -4.5713043c1.9154129 -3.0542908 2.8731232 -7.1052704 2.8731232 -12.152962l-0.04134369 -2.2501755c-0.22047424 -4.6625214 -1.2861252 -8.35199 -3.1969452 -11.068413c-1.9062271 -2.7164307 -4.368248 -4.074642 -7.386055 -4.074642z" fill-rule="evenodd"/><path fill="#ffffff" d="m121.461876 63.49851l0 21.559093c0.027565002 3.9124603 0.6706238 6.882286 1.9291992 8.90947c1.2631607 2.0271835 3.0935974 3.040779 5.49131 3.040779c2.604416 0 4.6438446 -1.3176727 6.1183014 -3.9530106l0.1653595 3.3448486l5.622223 0l0 -32.90118l-5.994278 0l0 23.29234c-0.75790405 2.0677261 -2.1496735 3.1015854 -4.1753387 3.1015854c-2.1221008 0 -3.1831589 -1.7129669 -3.1831589 -5.1389084l0 -21.255016z" fill-rule="evenodd"/></g></svg>